<svg width="1440" height="221" viewBox="0 0 1440 221" fill="none" xmlns="http://www.w3.org/2000/svg">
<path d="M161.857 3.83984L164.681 4.85375L166.122 0.839844H161.857V3.83984ZM84.9531 218V221H87.0634L87.7766 219.014L84.9531 218ZM59.9043 218L57.0808 219.014L57.794 221H59.9043V218ZM-17 3.83984V0.839844H-21.2649L-19.8235 4.85375L-17 3.83984ZM9.07422 3.83984L11.9012 2.83586L11.1924 0.839844H9.07422V3.83984ZM59.1719 144.904L56.3449 145.908L56.3479 145.917L56.3511 145.926L59.1719 144.904ZM64.5918 161.164L61.7198 162.031L61.7273 162.056L61.7352 162.08L64.5918 161.164ZM72.3555 190.021L69.4239 190.659H75.287L72.3555 190.021ZM75.7246 176.105L78.6243 176.875L78.6262 176.868L78.6281 176.86L75.7246 176.105ZM80.1191 161.018L82.9758 161.934L82.9783 161.926L82.9807 161.918L80.1191 161.018ZM85.6855 144.465L88.5119 145.471L88.5134 145.466L85.6855 144.465ZM135.49 3.83984V0.839844H133.37L132.662 2.8383L135.49 3.83984ZM159.034 2.82594L82.1297 216.986L87.7766 219.014L164.681 4.85375L159.034 2.82594ZM84.9531 215H59.9043V221H84.9531V215ZM62.7278 216.986L-14.1765 2.82594L-19.8235 4.85375L57.0808 219.014L62.7278 216.986ZM-17 6.83984H9.07422V0.839844H-17V6.83984ZM6.2472 4.84383L56.3449 145.908L61.9989 143.9L11.9012 2.83586L6.2472 4.84383ZM56.3511 145.926C58.3855 151.544 60.1746 156.913 61.7198 162.031L67.4638 160.297C65.884 155.064 64.0599 149.592 61.9927 143.883L56.3511 145.926ZM61.7352 162.08C63.3812 167.212 64.8314 172.143 66.0866 176.875L71.886 175.336C70.6022 170.497 69.1227 165.468 67.4484 160.248L61.7352 162.08ZM66.0866 176.875C67.3454 181.619 68.4577 186.214 69.4239 190.659L75.287 189.384C74.3001 184.845 73.1663 180.162 71.886 175.336L66.0866 176.875ZM75.287 190.659C76.2532 186.214 77.3655 181.619 78.6243 176.875L72.8249 175.336C71.5447 180.162 70.4108 184.845 69.4239 189.384L75.287 190.659ZM78.6281 176.86C79.8825 172.036 81.3314 167.06 82.9758 161.934L77.2625 160.101C75.5865 165.326 74.1058 170.41 72.8211 175.351L78.6281 176.86ZM82.9807 161.918C84.6287 156.684 86.4722 151.201 88.5119 145.471L82.8592 143.459C80.7973 149.252 78.9299 154.805 77.2576 160.117L82.9807 161.918ZM88.5134 145.466L138.318 4.84139L132.662 2.8383L82.8577 143.463L88.5134 145.466ZM135.49 6.83984H161.857V0.839844H135.49V6.83984ZM325.627 218L322.83 219.085L323.573 221H325.627V218ZM299.26 150.031L302.057 148.946L301.314 147.031H299.26V150.031ZM213.42 150.031V147.031H211.362L210.621 148.951L213.42 150.031ZM187.199 218V221H189.257L189.998 219.08L187.199 218ZM162.004 218L159.209 216.911L157.615 221H162.004V218ZM245.793 2.96094V-0.0390625H243.742L242.998 1.87176L245.793 2.96094ZM268.205 2.96094L271.003 1.87838L270.261 -0.0390625H268.205V2.96094ZM351.408 218V221H355.786L354.206 216.917L351.408 218ZM291.789 127.912V130.912H296.102L294.602 126.869L291.789 127.912ZM266.74 60.3828L263.894 61.3315L263.91 61.3791L263.928 61.4261L266.74 60.3828ZM263.811 51.7402L260.951 52.647L260.961 52.6784L260.971 52.7097L263.811 51.7402ZM256.486 28.8887L259.332 27.94L256.039 18.0608L253.572 28.1778L256.486 28.8887ZM253.264 40.9004L250.384 40.0577L250.378 40.0813L250.371 40.1049L253.264 40.9004ZM250.041 51.8867L252.895 52.8102L252.899 52.7982L252.903 52.7862L250.041 51.8867ZM247.258 60.3828L250.065 61.4422L250.085 61.3872L250.104 61.3315L247.258 60.3828ZM221.77 127.912L218.963 126.853L217.431 130.912H221.77V127.912ZM328.424 216.915L302.057 148.946L296.463 151.116L322.83 219.085L328.424 216.915ZM299.26 147.031H213.42V153.031H299.26V147.031ZM210.621 148.951L184.4 216.92L189.998 219.08L216.219 151.111L210.621 148.951ZM187.199 215H162.004V221H187.199V215ZM164.799 219.089L248.588 4.05011L242.998 1.87176L159.209 216.911L164.799 219.089ZM245.793 5.96094H268.205V-0.0390625H245.793V5.96094ZM265.407 4.04349L348.61 219.083L354.206 216.917L271.003 1.87838L265.407 4.04349ZM351.408 215H325.627V221H351.408V215ZM294.602 126.869L269.553 59.3395L263.928 61.4261L288.976 128.955L294.602 126.869ZM269.586 59.4341C268.997 57.665 268.017 54.7752 266.65 50.7708L260.971 52.7097C262.339 56.7131 263.312 59.585 263.894 61.3315L269.586 59.4341ZM266.67 50.8335C265.4 46.8286 264.082 42.6772 262.714 38.3795L256.997 40.1987C258.364 44.4947 259.682 48.6441 260.951 52.647L266.67 50.8335ZM262.714 38.3795C261.345 34.0765 260.217 30.5951 259.332 27.94L253.64 29.8374C254.513 32.4556 255.631 35.9079 256.997 40.1987L262.714 38.3795ZM253.572 28.1778C252.606 32.137 251.544 36.0969 250.384 40.0577L256.143 41.7431C257.327 37.696 258.413 33.6482 259.401 29.5995L253.572 28.1778ZM250.371 40.1049C249.305 43.9807 248.241 47.6079 247.179 50.9872L252.903 52.7862C253.989 49.3296 255.074 45.6326 256.156 41.6959L250.371 40.1049ZM247.187 50.9633C246.114 54.2783 245.189 57.1014 244.412 59.4341L250.104 61.3315C250.889 58.9767 251.819 56.1358 252.895 52.8102L247.187 50.9633ZM244.451 59.3234L218.963 126.853L224.576 128.971L250.065 61.4422L244.451 59.3234ZM221.77 130.912H291.789V124.912H221.77V130.912ZM381.145 218H378.145V221H381.145V218ZM381.145 3.83984V0.839844H378.145V3.83984H381.145ZM406.047 3.83984H409.047V0.839844H406.047V3.83984ZM406.047 195.734H403.047V198.734H406.047V195.734ZM501.115 195.734H504.115V192.734H501.115V195.734ZM501.115 218V221H504.115V218H501.115ZM384.145 218V3.83984H378.145V218H384.145ZM381.145 6.83984H406.047V0.839844H381.145V6.83984ZM403.047 3.83984V195.734H409.047V3.83984H403.047ZM406.047 198.734H501.115V192.734H406.047V198.734ZM498.115 195.734V218H504.115V195.734H498.115ZM501.115 215H381.145V221H501.115V215ZM717.326 155.744L720.19 156.637L720.192 156.631L717.326 155.744ZM698.576 190.607L696.29 188.664L696.289 188.666L698.576 190.607ZM581.975 213.02L580.793 215.777L580.801 215.78L581.975 213.02ZM551.213 190.461L548.904 192.377L548.91 192.384L548.916 192.391L551.213 190.461ZM532.902 155.451L530.025 156.3L530.028 156.309L530.031 156.319L532.902 155.451ZM570.549 14.2402L568.963 11.6934L568.956 11.6981L570.549 14.2402ZM679.387 14.0938L677.791 16.6339L677.798 16.6387L679.387 14.0938ZM712.346 52.4727L709.61 53.7031L709.614 53.7129L709.619 53.7226L712.346 52.4727ZM584.611 188.557L582.926 191.039L582.937 191.046L584.611 188.557ZM666.203 188.557L664.518 186.075L664.507 186.082L666.203 188.557ZM679.973 45.8809L677.558 47.6615L677.565 47.67L677.571 47.6784L679.973 45.8809ZM560.881 63.6055L558.095 62.4913L558.091 62.5021L560.881 63.6055ZM720.625 110.627C720.625 126.878 718.558 141.612 714.46 154.858L720.192 156.631C724.493 142.727 726.625 127.384 726.625 110.627H720.625ZM714.462 154.852C710.371 167.982 704.304 179.236 696.29 188.664L700.862 192.55C709.45 182.447 715.883 170.459 720.19 156.637L714.462 154.852ZM696.289 188.666C688.399 197.965 678.576 205.166 666.771 210.266L669.151 215.774C681.76 210.326 692.347 202.585 700.864 192.548L696.289 188.666ZM666.771 210.266C655.01 215.346 641.269 217.93 625.48 217.93V223.93C641.918 223.93 656.497 221.24 669.151 215.774L666.771 210.266ZM625.48 217.93C609.191 217.93 595.104 215.342 583.148 210.259L580.801 215.78C593.65 221.244 608.566 223.93 625.48 223.93V217.93ZM583.156 210.262C571.261 205.164 561.396 197.92 553.51 188.531L548.916 192.391C557.436 202.533 568.079 210.328 580.793 215.777L583.156 210.262ZM553.521 188.545C545.7 179.122 539.773 167.819 535.774 154.583L530.031 156.319C534.234 170.232 540.515 182.269 548.904 192.377L553.521 188.545ZM535.78 154.602C531.869 141.345 529.896 126.597 529.896 110.334H523.896C523.896 127.079 525.928 142.409 530.025 156.3L535.78 154.602ZM529.896 110.334C529.896 88.7864 533.456 70.0213 540.484 53.9689L534.988 51.5623C527.564 68.5178 523.896 88.1315 523.896 110.334H529.896ZM540.484 53.9689C547.48 37.9925 558.027 25.6279 572.142 16.7823L568.956 11.6981C553.774 21.2119 542.446 34.5309 534.988 51.5623L540.484 53.9689ZM572.134 16.7871C586.29 7.97515 604.159 3.4707 625.92 3.4707V-2.5293C603.344 -2.5293 584.3 2.14594 568.963 11.6934L572.134 16.7871ZM625.92 3.4707C646.683 3.4707 663.919 7.91732 677.791 16.6339L680.983 11.5536C665.948 2.10611 647.54 -2.5293 625.92 -2.5293V3.4707ZM677.798 16.6387C691.816 25.3882 702.417 37.7099 709.61 53.7031L715.082 51.2422C707.43 34.2276 696.059 20.9634 680.975 11.5488L677.798 16.6387ZM709.619 53.7226C716.921 69.6546 720.625 88.5946 720.625 110.627H726.625C726.625 87.9327 722.81 68.1032 715.073 51.2227L709.619 53.7226ZM550.117 110.627C550.117 129.066 552.743 145.175 558.086 158.884L563.676 156.706C558.667 143.852 556.117 128.516 556.117 110.627H550.117ZM558.086 158.884C563.457 172.668 571.725 183.434 582.926 191.039L586.296 186.075C576.208 179.226 568.656 169.485 563.676 156.706L558.086 158.884ZM582.937 191.046C594.294 198.686 608.543 202.396 625.48 202.396V196.396C609.41 196.396 596.413 192.88 586.286 186.067L582.937 191.046ZM625.48 202.396C642.508 202.396 656.723 198.689 667.899 191.031L664.507 186.082C654.59 192.877 641.656 196.396 625.48 196.396V202.396ZM667.888 191.039C679.094 183.431 687.316 172.658 692.589 158.866L686.985 156.724C682.102 169.494 674.602 179.229 664.518 186.075L667.888 191.039ZM692.589 158.866C697.829 145.163 700.404 129.06 700.404 110.627H694.404C694.404 128.522 691.902 143.865 686.985 156.724L692.589 158.866ZM700.404 110.627C700.404 82.6091 694.518 60.3088 682.374 44.0833L677.571 47.6784C688.669 62.5076 694.404 83.3714 694.404 110.627H700.404ZM682.387 44.1002C670.152 27.5097 651.107 19.4434 625.92 19.4434V25.4434C649.756 25.4434 666.747 33.002 677.558 47.6615L682.387 44.1002ZM625.92 19.4434C608.897 19.4434 594.603 23.0998 583.245 30.6371L586.563 35.6364C596.69 28.9158 609.74 25.4434 625.92 25.4434V19.4434ZM583.245 30.6371C571.945 38.1367 563.571 48.8021 558.095 62.4913L563.666 64.7196C568.737 52.0416 576.38 42.3945 586.563 35.6364L583.245 30.6371ZM558.091 62.5021C552.742 76.0267 550.117 92.0945 550.117 110.627H556.117C556.117 92.636 558.668 77.3561 563.671 64.7089L558.091 62.5021ZM872.746 10.4316L871.669 13.2317L871.684 13.2372L871.698 13.2426L872.746 10.4316ZM900.871 92.6094L903.505 94.0459L903.509 94.0388L903.513 94.0317L900.871 92.6094ZM863.518 121.76L862.558 118.917L859.001 120.118L860.957 123.323L863.518 121.76ZM922.258 218V221H927.604L924.819 216.437L922.258 218ZM893.254 218L890.667 219.518L891.536 221H893.254V218ZM840.812 128.645L843.4 127.126L842.53 125.645H840.812V128.645ZM796.281 128.645V125.645H793.281V128.645H796.281ZM796.281 218V221H799.281V218H796.281ZM771.379 218H768.379V221H771.379V218ZM771.379 3.83984V0.839844H768.379V3.83984H771.379ZM796.281 25.373V22.373H793.281V25.373H796.281ZM796.281 107.551H793.281V110.551H796.281V107.551ZM868.791 96.8574L866.836 94.5815L866.83 94.5873L866.823 94.593L868.791 96.8574ZM868.059 34.4551L866.344 36.9167L866.35 36.9212L866.357 36.9256L868.059 34.4551ZM829.24 6.83984C846.597 6.83984 860.702 9.01349 871.669 13.2317L873.823 7.6316C861.939 3.06073 847.039 0.839844 829.24 0.839844V6.83984ZM871.698 13.2426C882.716 17.3511 890.74 23.5709 895.998 31.8195L901.057 28.5946C894.986 19.0697 885.823 12.1059 873.794 7.6207L871.698 13.2426ZM895.998 31.8195C901.274 40.0974 904.023 50.8211 904.023 64.1914H910.023C910.023 50.0227 907.109 38.0901 901.057 28.5946L895.998 31.8195ZM904.023 64.1914C904.023 75.1717 902.034 84.1214 898.23 91.1871L903.513 94.0317C907.911 85.863 910.023 75.8674 910.023 64.1914H904.023ZM898.237 91.1728C894.343 98.3118 889.273 104.06 883.028 108.469L886.488 113.371C893.523 108.405 899.196 101.946 903.505 94.0459L898.237 91.1728ZM883.028 108.469C876.618 112.994 869.796 116.473 862.558 118.917L864.477 124.602C872.278 121.968 879.616 118.221 886.488 113.371L883.028 108.469ZM860.957 123.323L919.697 219.563L924.819 216.437L866.078 120.197L860.957 123.323ZM922.258 215H893.254V221H922.258V215ZM895.841 216.482L843.4 127.126L838.225 130.163L890.667 219.518L895.841 216.482ZM840.812 125.645H796.281V131.645H840.812V125.645ZM793.281 128.645V218H799.281V128.645H793.281ZM796.281 215H771.379V221H796.281V215ZM774.379 218V3.83984H768.379V218H774.379ZM771.379 6.83984H829.24V0.839844H771.379V6.83984ZM827.775 22.373H796.281V28.373H827.775V22.373ZM793.281 25.373V107.551H799.281V25.373H793.281ZM796.281 110.551H830.266V104.551H796.281V110.551ZM830.266 110.551C848.055 110.551 861.763 106.94 870.759 99.1218L866.823 94.593C859.413 101.033 847.437 104.551 830.266 104.551V110.551ZM870.746 99.1333C879.88 91.2885 884.242 79.8531 884.242 65.3633H878.242C878.242 78.6078 874.304 88.1685 866.836 94.5815L870.746 99.1333ZM884.242 65.3633C884.242 50.2174 879.639 38.7897 869.761 31.9846L866.357 36.9256C874.056 42.2299 878.242 51.4076 878.242 65.3633H884.242ZM869.773 31.9935C860.333 25.4168 846.162 22.373 827.775 22.373V28.373C845.717 28.373 858.402 31.384 866.344 36.9167L869.773 31.9935ZM1090.86 218L1088.06 219.085L1088.81 221H1090.86V218ZM1064.49 150.031L1067.29 148.946L1066.55 147.031H1064.49V150.031ZM978.654 150.031V147.031H976.596L975.855 148.951L978.654 150.031ZM952.434 218V221H954.492L955.233 219.08L952.434 218ZM927.238 218L924.443 216.911L922.85 221H927.238V218ZM1011.03 2.96094V-0.0390625H1008.98L1008.23 1.87176L1011.03 2.96094ZM1033.44 2.96094L1036.24 1.87838L1035.5 -0.0390625H1033.44V2.96094ZM1116.64 218V221H1121.02L1119.44 216.917L1116.64 218ZM1057.02 127.912V130.912H1061.34L1059.84 126.869L1057.02 127.912ZM1031.97 60.3828L1029.13 61.3315L1029.14 61.3791L1029.16 61.4261L1031.97 60.3828ZM1029.04 51.7402L1026.19 52.647L1026.2 52.6784L1026.21 52.7097L1029.04 51.7402ZM1021.72 28.8887L1024.57 27.94L1021.27 18.0608L1018.81 28.1778L1021.72 28.8887ZM1018.5 40.9004L1015.62 40.0577L1015.61 40.0813L1015.61 40.1049L1018.5 40.9004ZM1015.28 51.8867L1018.13 52.8102L1018.13 52.7982L1018.14 52.7862L1015.28 51.8867ZM1012.49 60.3828L1015.3 61.4422L1015.32 61.3872L1015.34 61.3315L1012.49 60.3828ZM987.004 127.912L984.197 126.853L982.665 130.912H987.004V127.912ZM1093.66 216.915L1067.29 148.946L1061.7 151.116L1088.06 219.085L1093.66 216.915ZM1064.49 147.031H978.654V153.031H1064.49V147.031ZM975.855 148.951L949.635 216.92L955.233 219.08L981.453 151.111L975.855 148.951ZM952.434 215H927.238V221H952.434V215ZM930.034 219.089L1013.82 4.05011L1008.23 1.87176L924.443 216.911L930.034 219.089ZM1011.03 5.96094H1033.44V-0.0390625H1011.03V5.96094ZM1030.64 4.04349L1113.84 219.083L1119.44 216.917L1036.24 1.87838L1030.64 4.04349ZM1116.64 215H1090.86V221H1116.64V215ZM1059.84 126.869L1034.79 59.3395L1029.16 61.4261L1054.21 128.955L1059.84 126.869ZM1034.82 59.4341C1034.23 57.665 1033.25 54.7752 1031.88 50.7708L1026.21 52.7097C1027.57 56.7131 1028.55 59.585 1029.13 61.3315L1034.82 59.4341ZM1031.9 50.8335C1030.63 46.8286 1029.32 42.6772 1027.95 38.3795L1022.23 40.1987C1023.6 44.4947 1024.92 48.6441 1026.19 52.647L1031.9 50.8335ZM1027.95 38.3795C1026.58 34.0765 1025.45 30.5951 1024.57 27.94L1018.87 29.8374C1019.75 32.4556 1020.87 35.9079 1022.23 40.1987L1027.95 38.3795ZM1018.81 28.1778C1017.84 32.137 1016.78 36.0969 1015.62 40.0577L1021.38 41.7431C1022.56 37.696 1023.65 33.6482 1024.64 29.5995L1018.81 28.1778ZM1015.61 40.1049C1014.54 43.9807 1013.48 47.6079 1012.41 50.9872L1018.14 52.7862C1019.22 49.3296 1020.31 45.6326 1021.39 41.6959L1015.61 40.1049ZM1012.42 50.9633C1011.35 54.2783 1010.42 57.1014 1009.65 59.4341L1015.34 61.3315C1016.12 58.9767 1017.05 56.1358 1018.13 52.8102L1012.42 50.9633ZM1009.69 59.3234L984.197 126.853L989.811 128.971L1015.3 61.4422L1009.69 59.3234ZM987.004 130.912H1057.02V124.912H987.004V130.912ZM1313.81 218V221H1316.81V218H1313.81ZM1285.1 218L1282.58 219.633L1283.47 221H1285.1V218ZM1168.35 38.1172L1170.87 36.484L1169.98 35.1172H1168.35V38.1172ZM1167.18 38.1172V35.1172H1163.99L1164.19 38.3005L1167.18 38.1172ZM1168.21 54.5234L1165.21 54.7135L1165.21 54.7166L1168.21 54.5234ZM1169.08 74.0059L1166.09 74.0903L1166.09 74.1123L1166.09 74.1343L1169.08 74.0059ZM1169.52 218V221H1172.52V218H1169.52ZM1146.38 218H1143.38V221H1146.38V218ZM1146.38 3.83984V0.839844H1143.38V3.83984H1146.38ZM1174.94 3.83984L1177.46 2.20719L1176.57 0.839844H1174.94V3.83984ZM1291.25 183.137L1288.74 184.769L1289.62 186.137H1291.25V183.137ZM1292.28 183.137V186.137H1295.45L1295.27 182.966L1292.28 183.137ZM1291.54 168.635L1288.55 168.773L1288.55 168.775L1291.54 168.635ZM1290.67 148.273L1287.67 148.353L1287.67 148.374L1287.67 148.395L1290.67 148.273ZM1290.37 3.83984V0.839844H1287.37V3.83984H1290.37ZM1313.81 3.83984H1316.81V0.839844H1313.81V3.83984ZM1313.81 215H1285.1V221H1313.81V215ZM1287.62 216.367L1170.87 36.484L1165.84 39.7504L1282.58 219.633L1287.62 216.367ZM1168.35 35.1172H1167.18V41.1172H1168.35V35.1172ZM1164.19 38.3005C1164.48 43.0885 1164.82 48.5595 1165.21 54.7135L1171.2 54.3333C1170.81 48.1827 1170.47 42.7162 1170.17 37.9339L1164.19 38.3005ZM1165.21 54.7166C1165.6 60.7304 1165.89 67.188 1166.09 74.0903L1172.08 73.9214C1171.89 66.9565 1171.59 60.4258 1171.2 54.3303L1165.21 54.7166ZM1166.09 74.1343C1166.38 80.9257 1166.52 87.8653 1166.52 94.9531H1172.52C1172.52 87.7832 1172.38 80.7579 1172.08 73.8774L1166.09 74.1343ZM1166.52 94.9531V218H1172.52V94.9531H1166.52ZM1169.52 215H1146.38V221H1169.52V215ZM1149.38 218V3.83984H1143.38V218H1149.38ZM1146.38 6.83984H1174.94V0.839844H1146.38V6.83984ZM1172.43 5.4725L1288.74 184.769L1293.77 181.504L1177.46 2.20719L1172.43 5.4725ZM1291.25 186.137H1292.28V180.137H1291.25V186.137ZM1295.27 182.966C1295.08 179.563 1294.83 174.741 1294.54 168.494L1288.55 168.775C1288.84 175.029 1289.09 179.875 1289.28 183.308L1295.27 182.966ZM1294.54 168.496C1294.25 162.155 1293.96 155.374 1293.66 148.152L1287.67 148.395C1287.96 155.626 1288.25 162.419 1288.55 168.773L1294.54 168.496ZM1293.66 148.193C1293.47 140.892 1293.37 134.131 1293.37 127.912H1287.37C1287.37 134.193 1287.47 141.007 1287.67 148.353L1293.66 148.193ZM1293.37 127.912V3.83984H1287.37V127.912H1293.37ZM1290.37 6.83984H1313.81V0.839844H1290.37V6.83984ZM1310.81 3.83984V218H1316.81V3.83984H1310.81ZM1438.03 218V221H1441.03V218H1438.03ZM1412.98 218H1409.98V221H1412.98V218ZM1412.98 25.8125H1415.98V22.8125H1412.98V25.8125ZM1345.6 25.8125H1342.6V28.8125H1345.6V25.8125ZM1345.6 3.83984V0.839844H1342.6V3.83984H1345.6ZM1505.12 3.83984H1508.12V0.839844H1505.12V3.83984ZM1505.12 25.8125V28.8125H1508.12V25.8125H1505.12ZM1438.03 25.8125V22.8125H1435.03V25.8125H1438.03ZM1438.03 215H1412.98V221H1438.03V215ZM1415.98 218V25.8125H1409.98V218H1415.98ZM1412.98 22.8125H1345.6V28.8125H1412.98V22.8125ZM1348.6 25.8125V3.83984H1342.6V25.8125H1348.6ZM1345.6 6.83984H1505.12V0.839844H1345.6V6.83984ZM1502.12 3.83984V25.8125H1508.12V3.83984H1502.12ZM1505.12 22.8125H1438.03V28.8125H1505.12V22.8125ZM1435.03 25.8125V218H1441.03V25.8125H1435.03Z" fill="#DADADA" fill-opacity="0.5"/>
</svg>
